<?xml version="1.0" encoding="iso-8859-1"?>
<!-- Generator: Adobe Illustrator 21.0.0, SVG Export Plug-In . SVG Version: 6.00 Build 0)  -->
<svg xmlns="http://www.w3.org/2000/svg" xmlns:xlink="http://www.w3.org/1999/xlink" version="1.1" id="Capa_1" x="0px" y="0px" viewBox="0 0 512 512" style="enable-background:new 0 0 512 512;" xml:space="preserve" width="512" height="512">
<g>
	<circle style="fill:#FF4F19;" cx="256" cy="256" r="256"/>
	<path style="fill:#FF0C2F;" d="M511.993,256.567c-59.051-59.051-127.104-127.102-127.104-127.102l-255.41,255.444   c0,0,68.32,68.321,127.083,127.084C397.498,511.69,511.687,397.503,511.993,256.567z"/>
	<g>
		<path style="fill:#00E1DE;" d="M427.805,311.466c-0.204,0.635-0.409,1.262-0.621,1.89c-15.078,45.028-46.587,81.679-88.921,103.35    c-25.839,13.223-53.858,19.922-82.074,19.922H256c-7.849-0.007-15.705-0.536-23.54-1.587c-10.726-1.432-21.403-3.836-31.925-7.236    c-45.889-14.817-83.265-46.615-105.24-89.542c-21.714-42.419-25.825-90.691-11.608-136.114c0.162-0.536,0.331-1.079,0.508-1.615    c14.817-45.889,46.615-83.265,89.542-105.24C199.631,82.036,227.713,75.344,256,75.372c18.59,0.021,37.264,2.948,55.466,8.822    c20.085,6.481,38.54,16.227,54.789,28.731c20.874,16.058,38.096,36.678,50.451,60.811    C438.68,216.656,442.622,265.57,427.805,311.466z"/>
		<path style="fill:#00B3B8;" d="M427.805,311.466c-0.204,0.635-0.409,1.262-0.621,1.89c-15.078,45.028-46.587,81.679-88.921,103.35    c-25.839,13.223-53.858,19.922-82.074,19.922H256V75.372c18.59,0.021,37.264,2.948,55.466,8.822    c20.085,6.481,38.54,16.227,54.789,28.731c20.874,16.058,38.096,36.678,50.451,60.811    C438.68,216.656,442.622,265.57,427.805,311.466z"/>
		<path style="fill:#008300;" d="M427.805,311.466c-0.204,0.635-0.409,1.262-0.621,1.89c-3.872,0.19-7.525-0.049-10.966-0.649    c-3.611-0.628-6.989-1.65-10.162-2.997c-33.625-14.281-43.54-64.937-43.54-64.937s-19.824-33.406-29.88-13.244    c-0.099,0.197-0.204,0.402-0.303,0.592c-7.532,14.464-28.646,12.863-34.048-2.525c-3.583-10.219-6.277-24.027-0.839-35.458    c9.986-21.008,43.307-15.811,44.154-40.741c0.31-9.224,4.619-17.821,9.93-24.993c2.186-2.969,4.549-5.698,6.869-8.117    c2.807-2.927,5.55-5.416,7.856-7.362c20.874,16.058,38.096,36.678,50.451,60.811C438.68,216.656,442.622,265.57,427.805,311.466z"/>
		<path style="fill:#009100;" d="M238.468,414.428c-0.254,3.42-0.874,6.904-1.918,10.451c-0.973,3.336-2.327,6.728-4.09,10.162    c-10.726-1.432-21.403-3.836-31.925-7.236c-45.889-14.817-83.265-46.615-105.24-89.542    c-21.714-42.419-25.825-90.691-11.608-136.114l9.647,4.591l9.676,4.598l5.606,2.666c4.64,2.207,7.567,6.918,7.475,12.066    c-0.226,12.905,0.86,36.474,11.608,38.667c14.866,3.039,44.175,4.986,57.334-24.866c8.724-19.788,24.154-10.049,33.576-1.234    c5.86,5.494,9.203,13.138,9.168,21.171c-0.056,10.487-2.722,24.915-15.571,32.264c-21.594,12.348-34.57,41.622-18.569,52.066    C206.676,352.658,241.077,379.914,238.468,414.428z"/>
	</g>
</g>















</svg>
