<?xml version="1.0" encoding="iso-8859-1"?>
<!-- Generator: Adobe Illustrator 21.0.0, SVG Export Plug-In . SVG Version: 6.00 Build 0)  -->
<svg xmlns="http://www.w3.org/2000/svg" xmlns:xlink="http://www.w3.org/1999/xlink" version="1.1" id="Capa_1" x="0px" y="0px" viewBox="0 0 512 512" style="enable-background:new 0 0 512 512;" xml:space="preserve" width="512" height="512">
<g>
	<circle style="fill:#00E1DE;" cx="256" cy="256" r="256"/>
	<path style="fill:#00B3B8;" d="M494.57,349.008L293.896,148.352l-58.156,92.488L189.3,194.141L82.717,363.662l147.004,147.004   C238.361,511.547,247.128,512,256,512C364.573,512,457.351,444.406,494.57,349.008z"/>
	<g>
		<polygon style="fill:#009100;" points="429.283,363.662 156.046,363.662 227.199,254.421 252.034,214.927 293.896,148.352     293.902,148.338 335.513,214.514   "/>
		<polygon style="fill:#008300;" points="429.283,363.662 293.896,363.662 293.896,148.352 293.902,148.338 335.513,214.514   "/>
		<polygon style="fill:#EFE6DE;" points="335.513,214.514 326.25,218.842 316.993,223.176 315.79,223.737 293.896,213.432     293.388,213.195 270.987,223.737 270.575,223.548 261.305,219.24 252.034,214.927 293.896,148.352 293.902,148.338   "/>
		<polygon style="fill:#DECCBC;" points="335.513,214.514 326.25,218.842 316.993,223.176 315.79,223.737 293.896,213.432     293.896,148.352 293.902,148.338   "/>
		<polygon style="fill:#67BD00;" points="295.883,363.662 82.717,363.662 156.046,247.031 189.3,194.141 222.554,247.031     227.199,254.421 233.19,263.948 239.181,273.475 283.131,343.377   "/>
		<polygon style="fill:#5EAD00;" points="295.883,363.662 189.3,363.662 189.3,194.141 222.554,247.031 227.199,254.421     233.19,263.948 239.181,273.475 283.131,343.377   "/>
		<polygon style="fill:#EFE6DE;" points="222.554,247.031 213.297,251.358 206.414,254.577 202.046,252.521 189.354,246.544     189.3,246.571 176.514,252.589 172.288,254.577 165.317,251.338 156.046,247.031 189.3,194.141   "/>
		<polygon style="fill:#DECCBC;" points="222.554,247.031 213.297,251.358 206.414,254.577 202.046,252.521 189.354,246.544     189.3,246.571 189.3,194.141   "/>
	</g>
</g>















</svg>
