<?xml version="1.0" encoding="iso-8859-1"?>
<!-- Generator: Adobe Illustrator 21.0.0, SVG Export Plug-In . SVG Version: 6.00 Build 0)  -->
<svg xmlns="http://www.w3.org/2000/svg" xmlns:xlink="http://www.w3.org/1999/xlink" version="1.1" id="Capa_1" x="0px" y="0px" viewBox="0 0 512 512" style="enable-background:new 0 0 512 512;" xml:space="preserve" width="512" height="512">
<g>
	<circle style="fill:#00E1DE;" cx="256" cy="256" r="256"/>
	<path style="fill:#00B3B8;" d="M494.858,348.251L341.711,194.718l-63.308-9.738l-91.419-92l-55.796,326.04l90.714,90.714   C233.058,511.219,244.438,512,256,512C364.859,512,457.835,444.047,494.858,348.251z"/>
	<g>
		<polygon style="fill:#C8AD92;" points="380.812,364.561 380.812,419.02 131.188,419.02 131.188,92.98 186.984,92.98     196.975,150.451 197.981,156.239 208.731,165.963 238.463,192.862 243.691,208.368 250.243,227.809 254.255,239.704     261.98,243.64 345.712,286.261 350.851,326.646 352.284,337.918 358.875,344.069   "/>
		<g>
			<polygon style="fill:#A17852;" points="294.726,165.585 265.906,199.828 303.2,233.472 341.711,194.718    "/>
			
				<rect x="328.979" y="233.895" transform="matrix(0.7652 -0.6437 0.6437 0.7652 -77.1073 274.7308)" style="fill:#A17852;" width="18.279" height="18.379"/>
		</g>
		<g>
			<polygon style="fill:#A17852;" points="243.691,266.017 234.311,277.498 237.902,300.614 219.028,303.55 214.124,272.015      243.691,235.826 250.243,227.809 254.255,239.704 261.98,243.64    "/>
			<polygon style="fill:#715539;" points="358.875,344.069 330.072,360.772 320.234,384.053 302.639,376.622 310.217,358.677      288.063,347.699 296.545,330.582 322.163,343.279 350.851,326.646 352.284,337.918    "/>
			<polygon style="fill:#A17852;" points="187.742,189.455 189.455,209.495 170.421,211.119 168.007,182.87 196.975,150.451      197.981,156.239 208.731,165.963    "/>
		</g>
		<polygon style="fill:#B38A65;" points="380.812,364.561 380.812,419.02 243.691,419.02 243.691,208.368 250.243,227.809     254.255,239.704 261.98,243.64 345.712,286.261 350.851,326.646 352.284,337.918 358.875,344.069   "/>
		<polygon style="fill:#715539;" points="254.255,239.704 261.98,243.64 243.691,266.017 243.691,235.826 250.243,227.809   "/>
		<polygon style="fill:#715539;" points="358.875,344.069 330.072,360.772 320.234,384.053 302.639,376.622 310.217,358.677     288.063,347.699 296.545,330.582 322.163,343.279 350.851,326.646 352.284,337.918   "/>
	</g>
</g>















</svg>
