<?xml version="1.0" encoding="iso-8859-1"?>
<!-- Generator: Adobe Illustrator 21.0.0, SVG Export Plug-In . SVG Version: 6.00 Build 0)  -->
<svg xmlns="http://www.w3.org/2000/svg" xmlns:xlink="http://www.w3.org/1999/xlink" version="1.1" id="Capa_1" x="0px" y="0px" viewBox="0 0 512 512" style="enable-background:new 0 0 512 512;" xml:space="preserve" width="512" height="512">
<g>
	<circle style="fill:#FF4F19;" cx="256" cy="256" r="256"/>
	<path style="fill:#FF0C2F;" d="M511.894,263.201l-92.944-92.944h-74.232l-43-43.948h-91.233v43.948L93.05,385.69l124.068,123.375   C229.797,510.997,242.781,512,256,512C394.976,512,508.08,401.255,511.894,263.201z"/>
	<g>
		<polygon style="fill:#C8AD92;" points="301.718,126.31 301.718,179.811 282.611,179.811 282.611,145.418 229.593,145.418     229.593,179.811 210.486,179.811 210.486,126.31   "/>
		<polygon style="fill:#B38A65;" points="301.718,126.31 301.718,179.811 282.611,179.811 282.611,145.418 256,145.418 256,126.31       "/>
		<rect x="93.05" y="170.258" style="fill:#A17852;" width="325.9" height="215.432"/>
		<rect x="256" y="170.258" style="fill:#715539;" width="162.95" height="215.432"/>
		<g>
			<g>
				<rect x="142.864" y="170.258" style="fill:#FFA92F;" width="19.108" height="215.432"/>
				<rect x="183.601" y="170.258" style="fill:#FFA92F;" width="19.108" height="215.432"/>
			</g>
			<g>
				<rect x="309.495" y="170.258" style="fill:#FF8A1D;" width="19.108" height="215.432"/>
				<rect x="350.233" y="170.258" style="fill:#FF8A1D;" width="19.108" height="215.432"/>
			</g>
		</g>
	</g>
</g>















</svg>
